If you care to share, you should love to seed,

please Seed what you leech and make the speed Faster with your speed,

and remember to visit http:// www . Speed . cd


 
http://img401.imageshack.us/img401/9356/300cover.png

300(2006)DVDRipXvid




General
Complete name                    : 300(2006)DVDRipXvid.avi
Format                           : AVI
Format/Info                      : Audio Video Interleave
Format profile                   : OpenDML
File size                        : 903 MiB
Duration                         : 1h 51mn
Overall bit rate                 : 1 129 Kbps
Writing application              : AVI-Mux GUI 1.17.8.3, Feb 16 201019:42:50

Video
ID                               : 0
Format                           : MPEG-4 Visual
Format profile                   : Advanced Simple@L5
Format settings, BVOP            : Yes
Format settings, QPel            : No
Format settings, GMC             : No warppoints
Format settings, Matrix          : Default (H.263)
Codec ID                         : XVID
Codec ID/Hint                    : XviD
Duration                         : 1h 51mn
Bit rate                         : 995 Kbps
Width                            : 720 pixels
Height                           : 304 pixels
Display aspect ratio             : 2.35:1
Frame rate                       : 25.000 fps
Color space                      : YUV
Chroma subsampling               : 4:2:0
Bit depth                        : 8 bits
Scan type                        : Progressive
Compression mode                 : Lossy
Bits/(Pixel*Frame)               : 0.182
Stream size                      : 796 MiB (88%)
Writing library                  : XviD 1.2.1 (UTC 2008-12-04)

Audio
ID                               : 1
Format                           : AC-3
Format/Info                      : Audio Coding 3
Mode extension                   : CM (complete main)
Codec ID                         : 2000
Duration                         : 1h 51mn
Bit rate mode                    : Constant
Bit rate                         : 128 Kbps
Channel(s)                       : 6 channels
Channel positions                : Front: L C R, Side: L R, LFE
Sampling rate                    : 48.0 KHz
Bit depth                        : 16 bits
Compression mode                 : Lossy
Stream size                      : 102 MiB (11%)
Alignment                        : Aligned on interleaves
Interleave, duration             : 64 ms (1.60 video frames)
Interleave, preload duration     : 192 ms
Title                            : ddxd T80 3_2ch 384Kbps DELAY 0ms


[color=red]iMDB:[/color] [url]http://www.imdb.com/title/tt0416449/[/url]


[plot]

In the Battle of Thermopylae of 480 BC an alliance of Greek city-states fought the invading Persian 
army in the mountain pass of Thermopylae. Vastly outnumbered, the Greeks held back the enemy 
in one of the most famous last stands of history. 
Persian King Xerxes lead a Army of well over 100,000 (Persian king Xerxes before war has about 170,000 army) 
men to Greece and was confronted by 300 Spartans, 700 Thespians and other Slave soldiers. 
Xerxes waited for 10 days for King Leonidas to surrender or withdraw left with no options he moved. 
The battle lasted for about 3 days and after which all 300 Spartans were killed. 
The Spartan defeat was not the one expected, as a local shepherd, named Ephialtes, 
defected to the Persians and informed Xerxes of a separate path through Thermopylae, 
which the Persians could use to outflank the Greeks.


[screens]

[img]http://img441.imageshack.us/img441/4184/vlcsnap2010120420h24m55.png[/img]
[img]http://img268.imageshack.us/img268/3036/vlcsnap2010120420h25m15.png[/img]
[img]http://img148.imageshack.us/img148/7361/vlcsnap2010120420h25m59.png[/img]
[img]http://img14.imageshack.us/img14/2741/vlcsnap2010120420h26m21.png[/img]
[img]http://img703.imageshack.us/img703/395/vlcsnap2010120420h26m46.png[/img]



